<svg xmlns="http://www.w3.org/2000/svg" xmlns:xlink="http://www.w3.org/1999/xlink" width="151.762" height="30.495" viewBox="0 0 151.762 30.495">
    <defs>
        <style>
            .cls-1{fill:#0c163f}.cls-2{fill:url(#linear-gradient)}.cls-3{fill:url(#linear-gradient-2)}
        </style>
        <linearGradient id="linear-gradient" x2="1" y1=".5" y2=".5" gradientUnits="objectBoundingBox">
            <stop offset=".085" stop-color="#3250fc"/>
            <stop offset=".176" stop-color="#3b4cfb"/>
            <stop offset=".328" stop-color="#5542f9"/>
            <stop offset=".521" stop-color="#7e32f6"/>
            <stop offset=".749" stop-color="#b71cf2"/>
            <stop offset="1" stop-color="#ff00ec"/>
        </linearGradient>
        <linearGradient id="linear-gradient-2" x2="1" y1=".5" y2=".5" xlink:href="#linear-gradient"/>
    </defs>
    <g id="Logo">
        <g id="Group_13" data-name="Group 13" transform="translate(37.442 7.893)">
            <path id="Path_56" d="M113.452 50.28h-5.012a1.251 1.251 0 0 0 0 2.5h5.007a2.215 2.215 0 1 1 0 4.43h-5.007a1.255 1.255 0 0 0-1.251 1.251v4.532a1.251 1.251 0 1 0 2.5 0v-3.28h3.757a4.716 4.716 0 0 0 0-9.433z" class="cls-1" data-name="Path 56" transform="translate(-107.19 -50.277)"/>
            <path id="Path_57" d="M334.971 50.28a5.985 5.985 0 0 0-5.981 5.981V63.1a1.251 1.251 0 1 0 2.5 0v-6.844a3.48 3.48 0 0 1 6.959 0v6.835a1.251 1.251 0 1 0 2.5 0v-6.835a5.984 5.984 0 0 0-5.978-5.976z" class="cls-1" data-name="Path 57" transform="translate(-226.632 -50.277)"/>
            <path id="Path_58" d="M146.577 50.28a6.867 6.867 0 1 0 6.867 6.867 6.875 6.875 0 0 0-6.867-6.867zm0 11.233a4.366 4.366 0 1 1 4.366-4.366 4.368 4.368 0 0 1-4.366 4.366z" class="cls-1" data-name="Path 58" transform="translate(-124.702 -50.277)"/>
            <path id="Path_59" d="M259 50.28a6.867 6.867 0 1 0 6.867 6.867A6.875 6.875 0 0 0 259 50.28zm0 11.233a4.366 4.366 0 1 1 4.366-4.366A4.368 4.368 0 0 1 259 61.513z" class="cls-1" data-name="Path 59" transform="translate(-185.242 -50.277)"/>
            <path id="Path_60" d="M296.947 50.28a6.867 6.867 0 1 0 6.867 6.867 6.875 6.875 0 0 0-6.867-6.867zm0 11.233a4.366 4.366 0 1 1 4.366-4.366 4.368 4.368 0 0 1-4.366 4.366z" class="cls-1" data-name="Path 60" transform="translate(-205.678 -50.277)"/>
            <path id="Path_61" d="M192.952 50.332a1.253 1.253 0 0 0-1.569.817l-2.367 7.5-2.423-7.5a.171.171 0 0 0-.023-.051c0-.009-.009-.018-.018-.042-.014-.042-.032-.078-.051-.12a.755.755 0 0 0-.051-.078l-.028-.042a1.053 1.053 0 0 0-.055-.078.881.881 0 0 0-.065-.069l-.032-.032a1 1 0 0 0-.074-.069.418.418 0 0 0-.074-.051l-.037-.028c-.028-.018-.06-.042-.092-.06s-.06-.028-.092-.042l-.055-.023-.065-.028h-.018a.629.629 0 0 0-.078-.018l-.065-.014a.718.718 0 0 0-.1-.018h-.083a.946.946 0 0 0-.162 0 .164.164 0 0 0-.046.009h-.023a.966.966 0 0 0-.166.037l.009.069-.028-.065a.281.281 0 0 0-.055.023l-.028.014-.023.009a1.054 1.054 0 0 0-.106.046c-.032.018-.06.037-.088.055l-.046.032a.66.66 0 0 0-.069.051.631.631 0 0 0-.078.078l-.028.032a.765.765 0 0 0-.06.065.94.94 0 0 0-.06.083l-.028.042a.439.439 0 0 0-.046.078 1.057 1.057 0 0 0-.046.106l-.009.018-.014.028a.282.282 0 0 0-.023.055l-2.367 7.495-2.418-7.5a1.251 1.251 0 1 0-2.381.766l3.623 11.233a1.253 1.253 0 0 0 2.386 0l2.367-7.5 2.418 7.5a1.253 1.253 0 0 0 2.386 0l3.549-11.233a1.267 1.267 0 0 0-.825-1.58z" class="cls-1" data-name="Path 61" transform="translate(-144.778 -50.273)"/>
            <path id="Path_62" d="M231.51 50.28h-8.279a1.251 1.251 0 0 0 0 2.5h2.889v10.279a1.251 1.251 0 0 0 2.5 0V52.781h2.889a1.251 1.251 0 0 0 0-2.5z" class="cls-1" data-name="Path 62" transform="translate(-169.006 -50.277)"/>
        </g>
        <g id="Group_14" data-name="Group 14">
            <path id="Path_63" d="M55.723 45.508l-.042-.069a1.259 1.259 0 0 0-1.048-.558 1.244 1.244 0 0 0-.628.171l-4.218 2.441-5.376 3.115-15.579 9.021a5.542 5.542 0 1 0 5.542 9.6l14.145-8.15a5.69 5.69 0 0 0 2.912-4.479q.014-.215.014-.429a4.342 4.342 0 0 0-1.56-3.452l-.074-.065-.083.051-2.1 1.214-.175.1.162.129c1 .8 1.361 1.348 1.324 2.021v.1a.715.715 0 0 1 0 .1v.046a2.869 2.869 0 0 1-.378 1.2 3.952 3.952 0 0 1-1.3 1.292L33.119 67.05a3.018 3.018 0 0 1-1.518.406 3.172 3.172 0 0 1-.78-.1 3.031 3.031 0 0 1-.729-5.552l19.82-11.478.143-.083 5.076-2.94.134-.078a1.362 1.362 0 0 0 .254-.2 1.266 1.266 0 0 0 .204-1.517z" class="cls-2" data-name="Path 63" transform="translate(-26.057 -39.476)"/>
            <path id="Path_64" d="M26.778 44.375a5 5 0 0 0 3.122 2.381 5.144 5.144 0 0 0 1.269.162 5.272 5.272 0 0 0 2.607-.7l7.872-4.518 1.938-1.112 3.433-1.971.715-.411a1.258 1.258 0 0 0-1.251-2.183l-.729.42-3.433 1.971-1.938 1.112-7.855 4.5a2.771 2.771 0 0 1-1.366.369 2.645 2.645 0 0 1-.637-.078 2.518 2.518 0 0 1-1.564-1.2 2.6 2.6 0 0 1-.346-1.191v-4.07a2.216 2.216 0 0 1 1.145-1.876 2.194 2.194 0 0 1 2.151-.009l4.869 3.272.074.051.074-.046 2.1-1.228.189-.111-.18-.125-.222-.152c-1.057-.725-2.921-1.994-5.547-3.775a3.331 3.331 0 0 0-.074-.046 4.742 4.742 0 0 0-7.1 4.033V42a5.142 5.142 0 0 0 .684 2.375z" class="cls-3" data-name="Path 64" transform="translate(-26.08 -33.17)"/>
        </g>
    </g>
</svg>
